PathFileType	4	(X/Y/Z)	63_1_6_p0_0-301_filt_butterworth.trc
DataRate	CameraRate	NumFrames	NumMarkers	Units	OrigDataRate	OrigDataStartFrame	OrigNumFrames
60.0	60.0	5	27	m	60.0	150	301
Frame#	Time	RHip			RKnee			RAnkle			RBigToe			RSmallToe			RHeel			LHip			LKnee			LAnkle			LBigToe			LSmallToe			LHeel			Neck			Head			Nose			RShoulder			RElbow			RWrist			RThumb			RIndex			RPinky			LShoulder			LElbow			LWrist			LThumb			LIndex			LPinky			
		X1	Y1	Z1	X2	Y2	Z2	X3	Y3	Z3	X4	Y4	Z4	X5	Y5	Z5	X6	Y6	Z6	X7	Y7	Z7	X8	Y8	Z8	X9	Y9	Z9	X10	Y10	Z10	X11	Y11	Z11	X12	Y12	Z12	X13	Y13	Z13	X14	Y14	Z14	X15	Y15	Z15	X16	Y16	Z16	X17	Y17	Z17	X18	Y18	Z18	X19	Y19	Z19	X20	Y20	Z20	X21	Y21	Z21	X22	Y22	Z22	X23	Y23	Z23	X24	Y24	Z24	X25	Y25	Z25	X26	Y26	Z26	X27	Y27	Z27	
150	2.5	0.29600180541989685	0.637784416196518	0.8249804814824182	0.30587618083557416	0.2440772021169243	0.8750391081998968	0.31806171868031285	-0.21879045835295005	0.9116263399575777	0.2710193037823951	-0.14116268698592824	0.6161878990225864	0.3356020224873586	-0.18141662123801275	0.685591086943044	0.31930746947283045	-0.29784606114551027	0.9579368774551409	0.1123020342545148	0.6273106785741027	0.8185951863312539	0.16253479250561492	0.2826399027434537	0.7982151656639858	0.18558290566145116	-0.20627976150061877	0.9181164864636802	0.14877627848377495	-0.16606687610716503	0.6716068090427588	0.09768731741895051	-0.19207810120457744	0.7375026587637468	0.2060878276149266	-0.3044173179038673	0.9703417503054442	0.13695182069873796	1.1492820881429382	0.6020838273116131	0.10400108540786784	1.3901379465421957	0.4529730762655225	0.07962554160020223	1.261927771710272	0.4417389157502941	0.28319348055720517	1.0950797829583183	0.6645354662338872	0.399589982110776	0.8932874171078341	0.8431463590748691	0.4210342303398098	0.6793167198465513	0.8632946444493328	0.3959087281686954	0.5901615072101755	0.8417664885888515	0.41798612459807927	0.5717216892311741	0.8594189757808592	0.42829662708415195	0.5724784123575265	0.8668764776400626	0.017475535476213888	1.0849362231742758	0.646357151566571	0.005234805234061455	0.8335841633837959	0.8656966962749413	0.03432150431714106	0.5943488275857938	0.9468286587992625	0.06100781329600566	0.48911707866597975	0.9690916693890866	0.056735040144280574	0.45963803610733267	1.0003648390073796	0.04421817050598566	0.4791820584548926	0.9913061211920128	
151	2.5166666666666666	0.29667654683112515	0.6374809521039674	0.8246661814309739	0.3077043345295636	0.24497966524426443	0.8723196921137912	0.3184613787479416	-0.21877693487855998	0.9126406437665677	0.2706654171063602	-0.140219086648595	0.6157877991670757	0.3344225958921687	-0.18114558243367532	0.6848504608129362	0.31929092823451505	-0.2979142039415215	0.9580928367312053	0.1132238322645823	0.627113536298353	0.8166609649919656	0.16390282723697788	0.2840289894795316	0.7949325280920242	0.18551124794458665	-0.206700844339476	0.9181000348806773	0.14960443225235767	-0.1678666797969542	0.6741487599367981	0.0975211905240068	-0.19294726814573043	0.7377191803415866	0.20607472033840107	-0.3032464411463623	0.9677182787210742	0.13662815321566818	1.1528832593535236	0.6008002634253717	0.10614905229210063	1.3928132576860506	0.4574302196371034	0.07992032462138812	1.2656591787953908	0.43966038511247435	0.2836283470879782	1.0964802360959864	0.6613247650711243	0.3997699215044599	0.8932308851134423	0.8427973814339011	0.4214569485788975	0.680805105468866	0.8618629153649897	0.39712518173201183	0.5919990208206826	0.8407940569331003	0.418236554598003	0.5742508387391876	0.8576358094591499	0.42891780747619346	0.5734165983775892	0.8637686683517996	0.015465593559941211	1.0852113471800862	0.6472441590671281	0.006516639699194455	0.8334827388296324	0.8669407376261802	0.03721391529684846	0.5946358110231047	0.9515341633877568	0.06356899266883023	0.4882409861408291	0.9747387068077196	0.057703556510986534	0.4604704115736321	1.0008258201641707	0.04550352581431838	0.47789520810972974	0.9920992950793895	
152	2.533333333333333	0.2972652723374833	0.6373171172720407	0.8244043871338875	0.30937778705728985	0.24610220760589913	0.869500991588564	0.31878450273441933	-0.21853715112465666	0.9134905251286833	0.2704168685510938	-0.13975146466198196	0.6155846259479646	0.33331867996439846	-0.18102955365395687	0.6841491314895246	0.31934235579246184	-0.2977579713577539	0.9579405964801968	0.11410027851602682	0.6269679364359828	0.8150351561639939	0.16508704914685823	0.2850332548768314	0.7923432563171392	0.18545202174303596	-0.20709739750596884	0.918072102489695	0.15021909205474396	-0.16922846807941283	0.6760811890221822	0.09740810955392032	-0.1934320712065502	0.7378492119086013	0.20615574690100666	-0.30217786611171477	0.9652668792568726	0.13635027085885074	1.156836751836888	0.6000660316489819	0.10848221218948528	1.3957440822274185	0.46283873065109415	0.08103605722310164	1.2699322378280353	0.43739931392208126	0.2842630321136086	1.098680224563234	0.6577529469752915	0.39994163570227026	0.8931649401261798	0.8424781810326256	0.42194890018435827	0.682476076603791	0.8595900288202108	0.39846459178443283	0.5937015662484522	0.8395894184222565	0.418570255189322	0.5761455219137477	0.8556998370695292	0.429400676309068	0.5744209824774521	0.8612980100523049	0.014125044897335607	1.0861123201516256	0.6483319332358206	0.007050708238944749	0.833457344064787	0.8678188635427007	0.040444013380045156	0.5958860941325855	0.956975663301875	0.06667013027171265	0.48773059355008025	0.9843262643188107	0.060168789877578115	0.4603630065878497	1.005975303620198	0.047901851861331765	0.4761442473131485	0.9952808658672886	
153	2.55	0.2977464897244508	0.6373762186462322	0.8240094523147643	0.31095136892746666	0.2472581712479772	0.8667445913292098	0.31906902111462093	-0.21811426813813606	0.914234509131568	0.2702881589314185	-0.13990081959542286	0.6154997356702615	0.3324655057745908	-0.18103281325159087	0.6835446688721877	0.3194375416278823	-0.29745627784693307	0.9575707210880736	0.11490745924783301	0.6269876143562696	0.8135732188378515	0.16606369987216718	0.2855496228930526	0.7905354884889296	0.18541180265381085	-0.20746125842310745	0.9180451635472385	0.15053043776884642	-0.17001136536353706	0.6771769775223647	0.09735882531842452	-0.19353584229993032	0.7378758801509643	0.20640065870982244	-0.3011841443838781	0.9630821653457371	0.13621997593893695	1.160498647675289	0.6011805410926577	0.11099782421536608	1.3987805784895389	0.46960007539218807	0.08333355452083185	1.2743151222256677	0.4360102279985238	0.28490312007063556	1.1018191646142335	0.6542809761473687	0.40008167958369806	0.8930992874597347	0.8421868711201845	0.4224379447946137	0.6841213285704426	0.8567739306974451	0.3996645345154023	0.5951702775224342	0.837738201266576	0.41902210324163847	0.5771471080628282	0.8535413582924636	0.42970087932252166	0.5753801772684448	0.8594807429232362	0.013836907455533069	1.0872276030935004	0.6505344445231803	0.007004398662304803	0.8333393585881506	0.8685725382331749	0.04347460453766709	0.5974973449776834	0.9627176380469042	0.06985177829096417	0.48785416383883207	0.995776958351857	0.0638597448154194	0.45951585060229894	1.015277951597087	0.051056394370276384	0.4741060623075866	1.0009504390599897	
154	2.566666666666667	0.29810688949918857	0.6377296883707428	0.8233328338923795	0.31248793256655677	0.24830854447549178	0.8640819379958937	0.31935312372988567	-0.21754845327786124	0.9148770161557592	0.2702688603955959	-0.14058776538415832	0.6154640847937609	0.3319290370285965	-0.18107534032054265	0.6831344433422523	0.3195366002625694	-0.29715118899232706	0.9571740111638802	0.11563316395170116	0.6272231988165733	0.8121398697034548	0.166854035119162	0.28556656693916493	0.7894401414329799	0.18539411060875716	-0.20778051645459011	0.9180274292563297	0.15055163954247663	-0.17021210648917062	0.6774226078912812	0.09737028070013173	-0.19341716559054942	0.7378543752514896	0.20681435475486856	-0.3001605905352249	0.9610572519849004	0.1363759085113179	1.1635797247304025	0.6049311947208327	0.11363169524574213	1.4019915799170983	0.47761399381495495	0.08706811103859724	1.278454488534118	0.436486595020584	0.2854444651591464	1.1056725789926487	0.6515038133616033	0.4001761395065606	0.8930447781631947	0.8419265122437825	0.42286892808693716	0.685521355676611	0.8537598017535724	0.4004075144679164	0.5963967901991909	0.8349012109727741	0.41952484971134807	0.5772725175497977	0.8511329101811969	0.4297926408703727	0.5761007780328873	0.858359298646456	0.014748386003566502	1.0882006256893553	0.6543629076154092	0.006700074637787564	0.8329311100193362	0.8691518266451834	0.0456602611494163	0.5992539752253054	0.9674008361836304	0.07231101453736452	0.48890883632523996	1.0056489143993534	0.06781125194580823	0.4585392021852277	1.0261397576920126	0.05397208452271479	0.47255985254331595	1.0073681735003062	
